HIERARCHY
ROOT Hips
{
 OFFSET 0.000000 0.000000 0.000000
 CHANNELS 6 Xposition Yposition Zposition Yrotation Xrotation Zrotation
 JOINT Chest
 {
  OFFSET 0.000000 9.585900 0.002600
  CHANNELS 3 Yrotation Xrotation Zrotation
  JOINT Chest2
  {
   OFFSET 0.000000 9.601200 -0.005300
   CHANNELS 3 Yrotation Xrotation Zrotation
   JOINT Chest3
   {
    OFFSET 0.000000 9.561800 0.000000
    CHANNELS 3 Yrotation Xrotation Zrotation
    JOINT Chest4
    {
     OFFSET 0.000000 9.552100 0.000000
     CHANNELS 3 Yrotation Xrotation Zrotation
     JOINT Neck
     {
      OFFSET 0.000000 14.453000 0.000000
      CHANNELS 3 Yrotation Xrotation Zrotation
      JOINT Head
      {
       OFFSET 0.000000 8.936500 -0.011300
       CHANNELS 3 Yrotation Xrotation Zrotation
       End Site
       {
        OFFSET 0.000000 17.073600 -0.006000
       }
      }
     }
     JOINT RightCollar
     {
      OFFSET -2.921100 9.558500 0.000000
      CHANNELS 3 Yrotation Xrotation Zrotation
      JOINT RightShoulder
      {
       OFFSET -13.519700 0.000000 0.000000
       CHANNELS 3 Yrotation Xrotation Zrotation
       JOINT RightElbow
       {
        OFFSET 0.000000 -29.696600 0.000000
        CHANNELS 3 Yrotation Xrotation Zrotation
        JOINT RightWrist
        {
         OFFSET 0.000000 -24.004700 0.000000
         CHANNELS 3 Yrotation Xrotation Zrotation
         End Site
         {
          OFFSET 0.000000 -17.728500 0.000000
         }
        }
       }
      }
     }
     JOINT LeftCollar
     {
      OFFSET 2.921100 9.558500 0.000000
      CHANNELS 3 Yrotation Xrotation Zrotation
      JOINT LeftShoulder
      {
       OFFSET 13.519700 0.000000 0.000000
       CHANNELS 3 Yrotation Xrotation Zrotation
       JOINT LeftElbow
       {
        OFFSET 0.000000 -29.696600 0.000000
        CHANNELS 3 Yrotation Xrotation Zrotation
        JOINT LeftWrist
        {
         OFFSET 0.000000 -24.004700 0.000000
         CHANNELS 3 Yrotation Xrotation Zrotation
         End Site
         {
          OFFSET 0.000000 -17.728500 0.000000
         }
        }
       }
      }
     }
    }
   }
  }
 }
 JOINT RightHip
 {
  OFFSET -7.771700 -0.012900 -0.001300
  CHANNELS 3 Yrotation Xrotation Zrotation
  JOINT RightKnee
  {
   OFFSET 0.000000 -40.869800 0.001200
   CHANNELS 3 Yrotation Xrotation Zrotation
   JOINT RightAnkle
   {
    OFFSET 0.000000 -39.717900 0.002100
    CHANNELS 3 Yrotation Xrotation Zrotation
    JOINT RightToe
    {
     OFFSET 0.000000 -4.965400 11.033500
     CHANNELS 3 Yrotation Xrotation Zrotation
     End Site
     {
      OFFSET 0.000000 -1.423100 5.872300
     }
    }
   }
  }
 }
 JOINT LeftHip
 {
  OFFSET 7.771700 -0.012900 -0.001300
  CHANNELS 3 Yrotation Xrotation Zrotation
  JOINT LeftKnee
  {
   OFFSET 0.000000 -40.869800 0.001200
   CHANNELS 3 Yrotation Xrotation Zrotation
   JOINT LeftAnkle
   {
    OFFSET 0.000000 -39.717900 0.002100
    CHANNELS 3 Yrotation Xrotation Zrotation
    JOINT LeftToe
    {
     OFFSET 0.000000 -4.965400 11.033500
     CHANNELS 3 Yrotation Xrotation Zrotation
     End Site
     {
      OFFSET 0.000000 -1.423100 5.872300
     }
    }
   }
  }
 }
}
MOTION
Frames: 16
Frame Time: 0.008333
-69.092474 63.213849 12.685927 164.327916 -51.514749 -2.715467 8.499348 25.694191 5.816396 1.267904 4.475550 0.492989 2.011208 7.106358 0.782843 6.551430 21.081462 3.257905 1.582338 15.418188 1.056084 2.566307 -7.166671 1.391355 5.468450 6.059368 6.271602 -0.015514 -16.266496 -14.341625 -99.185443 -57.064441 141.869885 14.388750 6.661375 3.134993 -9.948463 2.812909 -0.467184 -2.856023 -9.562070 15.589390 112.212763 -64.551031 -143.105555 10.726654 0.119343 -13.330937 -4.443666 -8.837948 10.564105 -26.829632 74.277555 -25.109221 0.651225 -13.372765 -2.082054 -0.529614 0.758807 -0.244294 -2.557739 -15.490971 1.007288 15.874318 61.523448 9.209953 -0.143653 -4.172159 1.120367 -0.568951 -0.545783 -0.259772
-69.093924 63.213065 12.683410 164.331621 -51.519855 -2.715358 8.493437 25.703081 5.804129 1.257234 4.490705 0.464220 2.018915 7.100894 0.797200 6.546195 21.087814 3.248216 1.551457 15.361879 1.058940 2.507651 -7.271356 1.407341 5.493568 6.045017 6.272102 -0.029566 -16.276994 -14.340479 -99.176596 -57.050963 141.867834 14.387829 6.660465 3.138345 -9.929456 2.795563 -0.448220 -2.864517 -9.545367 15.574429 112.190449 -64.507541 -143.098359 10.698949 0.119703 -13.301149 -4.443507 -8.833250 10.559878 -26.830925 74.276259 -25.109547 0.647774 -13.371493 -2.079769 -0.529445 0.758527 -0.243524 -2.544993 -15.491223 1.004961 15.873482 61.545577 9.216339 -0.157343 -4.233584 1.121432 -0.562691 -0.570922 -0.258057
-69.092873 63.213289 12.681439 164.332949 -51.528473 -2.731229 8.496447 25.712529 5.810305 1.254379 4.499194 0.454466 2.023304 7.096464 0.804637 6.531278 21.103505 3.227291 1.523134 15.306410 1.064522 2.452857 -7.374562 1.427590 5.519091 6.028627 6.274356 -0.054584 -16.281722 -14.356472 -99.171218 -57.033877 141.879217 14.400417 6.660641 3.152489 -9.924409 2.779674 -0.448886 -2.861490 -9.529624 15.576352 112.245376 -64.518344 -143.144038 10.753194 0.097782 -13.275574 -4.443492 -8.823618 10.572915 -26.833368 74.274302 -25.110507 0.655872 -13.365834 -2.074096 -0.539078 0.754345 -0.248001 -2.544340 -15.479779 1.022587 15.924504 61.565991 9.255023 -0.167975 -4.340744 1.134806 -0.579730 -0.507699 -0.265127
-69.094850 63.212439 12.679782 164.349670 -51.525372 -2.745131 8.482357 25.719655 5.791865 1.254031 4.501763 0.453229 2.026625 7.091716 0.811152 6.517568 21.118312 3.205709 1.495889 15.252309 1.072100 2.399368 -7.475212 1.451206 5.542791 6.028307 6.259859 -0.071811 -16.303141 -14.330492 -99.165541 -57.042022 141.882765 14.409555 6.667021 3.168251 -9.930250 2.766447 -0.466385 -2.852434 -9.513341 15.592003 112.272205 -64.513357 -143.165898 10.743999 0.098511 -13.248348 -4.448011 -8.825368 10.575664 -26.846396 74.267505 -25.124147 0.659421 -13.364420 -2.068202 -0.543722 0.755815 -0.247274 -2.530438 -15.481193 1.022435 15.920721 61.577324 9.262041 -0.180666 -4.416230 1.142429 -0.578929 -0.512542 -0.265335
-69.098418 63.212944 12.676813 164.357056 -51.530248 -2.743366 8.469199 25.736401 5.766171 1.258173 4.502995 0.451403 2.016084 7.110656 0.786310 6.529746 21.105559 3.212231 1.468392 15.199645 1.081086 2.344660 -7.573065 1.477549 5.555326 6.030150 6.245136 -0.076020 -16.326886 -14.294750 -99.171812 -57.066082 141.882237 14.407506 6.673910 3.184540 -9.919507 2.751149 -0.453579 -2.853709 -9.493462 15.574895 112.273260 -64.476542 -143.167900 10.695908 0.123320 -13.224296 -4.442340 -8.821032 10.568572 -26.849415 74.266099 -25.126243 0.654884 -13.365269 -2.062145 -0.543970 0.756912 -0.245613 -2.483461 -15.472495 1.004714 15.893156 61.583255 9.268550 -0.191337 -4.480999 1.150758 -0.578903 -0.523152 -0.265305
-69.105039 63.212930 12.673542 164.385551 -51.528815 -2.742482 8.441145 25.749406 5.725115 1.258494 4.502747 0.450145 2.017321 7.106976 0.792617 6.520502 21.118226 3.190115 1.441180 15.148608 1.090763 2.290133 -7.667886 1.505204 5.571038 6.033099 6.228658 -0.097457 -16.348216 -14.265646 -99.159265 -57.074768 141.875571 14.407914 6.683568 3.198773 -9.923961 2.740345 -0.455866 -2.838016 -9.480846 15.578562 112.287554 -64.469481 -143.184838 10.669886 0.133471 -13.218601 -4.453183 -8.823096 10.548857 -26.840535 74.270075 -25.134442 0.658396 -13.369213 -2.039686 -0.560059 0.757705 -0.252515 -2.478604 -15.471555 0.975297 15.885685 61.585342 9.271857 -0.204137 -4.529194 1.149500 -0.558558 -0.597080 -0.257940
-69.109772 63.212987 12.671138 164.393872 -51.526551 -2.739617 8.432026 25.756015 5.701498 1.258429 4.504953 0.446320 2.018594 7.103306 0.799466 6.512607 21.130764 3.169225 1.415157 15.099373 1.100575 2.237824 -7.759453 1.532775 5.587780 6.061894 6.168530 -0.148876 -16.374224 -14.204366 -99.152448 -57.078576 141.883158 14.404632 6.672799 3.223972 -9.935768 2.735131 -0.501138 -2.822493 -9.481802 15.642579 112.261624 -64.452923 -143.157294 10.655759 0.141775 -13.188546 -4.446552 -8.828309 10.541961 -26.841131 74.270092 -25.137854 0.656521 -13.365441 -2.031098 -0.558318 0.755867 -0.252540 -2.476113 -15.472120 0.966147 15.892850 61.591938 9.271390 -0.204139 -4.573457 1.160205 -0.562765 -0.615089 -0.258889
-69.113453 63.213745 12.668723 164.395526 -51.529051 -2.738001 8.431650 25.766279 5.683252 1.257572 4.504709 0.449772 2.018699 7.107845 0.791168 6.510113 21.137173 3.159432 1.412471 15.064295 1.118650 2.168101 -7.861139 1.558848 5.604613 6.063544 6.150959 -0.175174 -16.385632 -14.176460 -99.159411 -57.062882 141.901745 14.442995 6.741647 3.234142 -9.933964 2.726284 -0.507020 -2.815942 -9.465867 15.638926 112.290745 -64.461097 -143.180886 10.643543 0.156279 -13.158553 -4.445533 -8.825755 10.539880 -26.831584 74.268760 -25.134589 0.656175 -13.362665 -2.027603 -0.558197 0.754423 -0.252008 -2.459637 -15.466961 0.960713 15.897749 61.598493 9.280173 -0.209686 -4.616796 1.168234 -0.564325 -0.631544 -0.258911
-69.116915 63.214324 12.666712 164.400715 -51.530032 -2.740435 8.427030 25.775510 5.667062 1.259545 4.499258 0.459830 2.015783 7.119541 0.775918 6.514428 21.131714 3.162376 1.400709 15.040528 1.124486 2.144344 -7.904628 1.573352 5.613912 6.064124 6.142890 -0.195258 -16.380600 -14.169793 -99.175234 -57.072932 141.916223 14.438851 6.734865 3.243820 -9.932638 2.721622 -0.508976 -2.814072 -9.447791 15.624722 112.322506 -64.467421 -143.198357 10.636837 0.168517 -13.130537 -4.440738 -8.824086 10.543987 -26.840609 74.263577 -25.147398 0.650961 -13.364036 -2.030903 -0.556001 0.757559 -0.240964 -2.441329 -15.461031 0.966351 15.902911 61.601261 9.281721 -0.240986 -4.655156 1.177835 -0.555385 -0.624519 -0.253763
-69.119938 63.214580 12.665235 164.417916 -51.528638 -2.754331 8.414787 25.784431 5.638231 1.262245 4.497634 0.470091 2.016186 7.123674 0.772452 6.507012 21.140662 3.142259 1.385551 14.991490 1.143681 2.141211 -7.935205 1.591469 5.638978 6.050153 6.154703 -0.215338 -16.371036 -14.161141 -99.197103 -57.083668 141.931243 14.439206 6.726414 3.257748 -9.917857 2.707727 -0.488462 -2.822585 -9.417930 15.574490 112.433249 -64.509738 -143.277291 10.633653 0.176048 -13.067635 -4.445979 -8.823005 10.557087 -26.862510 74.252589 -25.178411 0.631127 -13.362446 -2.028187 -0.542598 0.759674 -0.229185 -2.447790 -15.461578 0.970427 15.975502 61.602246 9.338572 -0.278336 -4.681270 1.186670 -0.557413 -0.627374 -0.254295
-69.123954 63.214034 12.664123 164.429652 -51.522402 -2.757257 8.403431 25.780916 5.626054 1.259854 4.504005 0.455361 2.015905 7.126805 0.768705 6.500823 21.148813 3.123031 1.371762 14.946328 1.164209 2.049039 -8.085556 1.645623 5.664763 6.050994 6.150949 -0.234625 -16.377083 -14.132929 -99.229662 -57.105243 141.951187 14.447465 6.739708 3.265587 -9.927243 2.710594 -0.506668 -2.805626 -9.425608 15.612910 112.462767 -64.514148 -143.274881 10.622206 0.189146 -13.068810 -4.451228 -8.829473 10.557072 -26.867771 74.248193 -25.194541 0.626380 -13.360824 -2.020395 -0.542812 0.759728 -0.229030 -2.449279 -15.467271 0.965666 15.980977 61.604698 9.342690 -0.293951 -4.699023 1.186555 -0.546603 -0.686819 -0.250036
-69.126807 63.214153 12.662847 164.449780 -51.521602 -2.771824 8.389328 25.787043 5.610283 1.256919 4.510772 0.440026 2.020278 7.123038 0.777531 6.497416 21.153723 3.109876 1.355087 14.906049 1.179027 2.000948 -8.180094 1.684886 5.694605 6.074144 6.121399 -0.261417 -16.413345 -14.077490 -99.238593 -57.138603 141.937638 14.486471 6.796623 3.279008 -9.917665 2.705465 -0.491042 -2.804639 -9.423506 15.609985 112.496611 -64.522852 -143.292012 10.616861 0.196703 -13.073914 -4.462893 -8.824769 10.564881 -26.889495 74.235201 -25.226850 0.618889 -13.366785 -2.017046 -0.536972 0.766547 -0.225920 -2.442885 -15.468053 0.978327 15.973395 61.611378 9.328220 -0.331569 -4.709559 1.195887 -0.525602 -0.711510 -0.242174
-69.136989 63.214075 12.659170 164.480509 -51.521410 -2.747683 8.344723 25.800212 5.541652 1.259871 4.507088 0.450330 2.015772 7.131460 0.760662 6.499963 21.154502 3.106590 1.335191 14.871443 1.185637 1.972221 -8.250913 1.719202 5.709543 6.071991 6.119861 -0.280482 -16.396148 -14.071695 -99.271811 -57.180213 141.929438 14.481258 6.778221 3.320180 -9.914677 2.703206 -0.481848 -2.792870 -9.412174 15.583632 112.565912 -64.545336 -143.354382 10.597309 0.203061 -13.045531 -4.475001 -8.827043 10.518461 -26.894897 74.234939 -25.239954 0.573632 -13.361742 -2.021555 -0.494146 0.758188 -0.206133 -2.443865 -15.468529 0.933768 15.982840 61.617452 9.325332 -0.381050 -4.737070 1.193383 -0.486853 -0.704533 -0.224203
-69.140260 63.214556 12.657364 164.485704 -51.525073 -2.746028 8.338919 25.815692 5.515414 1.259115 4.503532 0.456251 2.015937 7.134488 0.756481 6.508118 21.145943 3.116161 1.283193 14.831837 1.174780 1.965691 -8.305788 1.753633 5.733834 6.116631 6.063858 -0.338038 -16.389614 -14.030490 -99.345371 -57.154586 142.013961 14.500759 6.809021 3.332278 -9.920641 2.721488 -0.521071 -2.767588 -9.395571 15.551578 112.691701 -64.594365 -143.472216 10.548497 0.204121 -13.003459 -4.478127 -8.822427 10.517065 -26.910447 74.230160 -25.266587 0.574040 -13.363510 -2.014240 -0.491073 0.759906 -0.207426 -2.440763 -15.462711 0.936405 16.003383 61.624136 9.322308 -0.380477 -4.763614 1.217362 -0.507279 -0.701442 -0.229560
-69.144163 63.214160 12.656047 164.500987 -51.522026 -2.749398 8.325772 25.816078 5.502983 1.259565 4.510507 0.445607 2.013882 7.150273 0.735696 6.510601 21.135045 3.121643 1.271705 14.795584 1.189754 1.936676 -8.376454 1.786618 5.765110 6.131199 6.043540 -0.367581 -16.409976 -13.991625 -99.349573 -57.184394 141.988838 14.500165 6.788572 3.359523 -9.908168 2.722326 -0.526047 -2.750996 -9.388307 15.542212 112.765406 -64.625569 -143.530425 10.518180 0.197104 -12.998884 -4.486166 -8.826062 10.505411 -26.912095 74.230338 -25.269715 0.579480 -13.362596 -2.015683 -0.492036 0.757525 -0.209675 -2.437353 -15.465393 0.936738 15.977056 61.630754 9.292916 -0.396441 -4.778392 1.220707 -0.482628 -0.730385 -0.220556
-69.147877 63.213833 12.654731 164.516806 -51.519479 -2.754369 8.315156 25.822806 5.482654 1.259354 4.517230 0.436837 2.013778 7.146820 0.740091 6.510191 21.141861 3.112264 1.279574 14.770415 1.210911 1.888072 -8.462552 1.818316 5.790628 6.135764 6.033262 -0.389542 -16.423193 -13.964534 -99.359354 -57.214376 141.966785 14.498159 6.769998 3.386315 -9.904171 2.716217 -0.521187 -2.724345 -9.375860 15.524822 112.853362 -64.653861 -143.590666 10.478624 0.195231 -13.002484 -4.493069 -8.829271 10.496108 -26.918788 74.229028 -25.275341 0.578961 -13.359664 -2.020204 -0.487906 0.755107 -0.204781 -2.439935 -15.467653 0.933526 15.965223 61.636087 9.277677 -0.401543 -4.796610 1.223620 -0.478533 -0.721561 -0.216489
